{
	"accessors" : 
	[
		{
			"bufferView" : 2,
			"byteOffset" : 0,
			"componentType" : 5126,
			"count" : 9720,
			"max" : 
			[
				1,
				1,
				1,
				1
			],
			"min" : 
			[
				0.006584956776350737,
				0.006584956776350737,
				0.006584956776350737,
				1
			],
			"name" : "accessor_color_m0-PolyPaper8_-132578",
			"type" : "VEC4"
		},
		{
			"bufferView" : 2,
			"byteOffset" : 155520,
			"componentType" : 5126,
			"count" : 816,
			"max" : 
			[
				0.9075471758842468,
				0.4368127584457397,
				0.07805658876895905,
				1
			],
			"min" : 
			[
				0.0697270855307579,
				0.05284162983298302,
				0.0328759141266346,
				1
			],
			"name" : "accessor_color_m1-PolyPaper8_-132588",
			"type" : "VEC4"
		},
		{
			"bufferView" : 0,
			"byteOffset" : 0,
			"componentType" : 5123,
			"count" : 14136,
			"max" : 
			[
				9719
			],
			"min" : 
			[
				0
			],
			"name" : "accessor_indices_0_m0-PolyPaper8_-132578",
			"type" : "SCALAR"
		},
		{
			"bufferView" : 0,
			"byteOffset" : 28272,
			"componentType" : 5123,
			"count" : 1152,
			"max" : 
			[
				815
			],
			"min" : 
			[
				0
			],
			"name" : "accessor_indices_0_m1-PolyPaper8_-132588",
			"type" : "SCALAR"
		},
		{
			"bufferView" : 1,
			"byteOffset" : 116640,
			"componentType" : 5126,
			"count" : 9720,
			"max" : 
			[
				0.999898,
				0.9997725,
				0.9997359
			],
			"min" : 
			[
				-0.999898,
				-0.9997726,
				-0.9997359
			],
			"name" : "accessor_normal_m0-PolyPaper8_-132578",
			"type" : "VEC3"
		},
		{
			"bufferView" : 1,
			"byteOffset" : 243072,
			"componentType" : 5126,
			"count" : 816,
			"max" : 
			[
				0.9991304,
				0.9943332,
				0.9942174
			],
			"min" : 
			[
				-0.9991304,
				-0.9943333,
				-0.9942173
			],
			"name" : "accessor_normal_m1-PolyPaper8_-132588",
			"type" : "VEC3"
		},
		{
			"bufferView" : 1,
			"byteOffset" : 0,
			"componentType" : 5126,
			"count" : 9720,
			"max" : 
			[
				0.1673251,
				2.248579,
				0.4244363
			],
			"min" : 
			[
				-0.3327599,
				1.484694,
				0.1827552
			],
			"name" : "accessor_position_m0-PolyPaper8_-132578",
			"type" : "VEC3"
		},
		{
			"bufferView" : 1,
			"byteOffset" : 233280,
			"componentType" : 5126,
			"count" : 816,
			"max" : 
			[
				0.2053002,
				2.19961,
				0.4330341
			],
			"min" : 
			[
				-0.08193911,
				1.762534,
				0.313672
			],
			"name" : "accessor_position_m1-PolyPaper8_-132588",
			"type" : "VEC3"
		}
	],
	"asset" : 
	{
		"copyright" : "Unknown",
		"generator" : "glTF 1-to-2 Upgrader for Google Blocks",
		"version" : "2.0"
	},
	"bufferViews" : 
	[
		{
			"buffer" : 0,
			"byteLength" : 30576,
			"byteOffset" : 0,
			"name" : "ushortBufferView",
			"target" : 34963
		},
		{
			"buffer" : 0,
			"byteLength" : 252864,
			"byteOffset" : 30576,
			"byteStride" : 12,
			"name" : "vec3BufferView",
			"target" : 34962
		},
		{
			"buffer" : 0,
			"byteLength" : 168576,
			"byteOffset" : 283440,
			"byteStride" : 16,
			"name" : "vec4BufferView",
			"target" : 34962
		}
	],
	"buffers" : 
	[
		{
			"byteLength" : 452016,
			"name" : "model",
			"uri" : "model.bin"
		}
	],
	"materials" : 
	[
		{
			"alphaMode" : "OPAQUE",
			"doubleSided" : false,
			"name" : "BlocksPaper",
			"pbrMetallicRoughness" : 
			{
				"baseColorFactor" : 
				[
					1,
					1,
					1,
					1
				],
				"metallicFactor" : 0,
				"roughnessFactor" : 0.6
			}
		},
		{
			"alphaMode" : "BLEND",
			"doubleSided" : false,
			"name" : "BlocksGlass",
			"pbrMetallicRoughness" : 
			{
				"baseColorFactor" : 
				[
					0.2,
					0.2,
					1,
					0.3
				],
				"metallicFactor" : 1,
				"roughnessFactor" : 0.4
			}
		},
		{
			"alphaMode" : "OPAQUE",
			"doubleSided" : true,
			"name" : "BlocksGem",
			"pbrMetallicRoughness" : 
			{
				"baseColorFactor" : 
				[
					1,
					0.4,
					1,
					1
				],
				"metallicFactor" : 0,
				"roughnessFactor" : 0.1
			}
		}
	],
	"meshes" : 
	[
		{
			"name" : "mesh_m0-PolyPaper8_-132578",
			"primitives" : 
			[
				{
					"attributes" : 
					{
						"COLOR_0" : 0,
						"NORMAL" : 4,
						"POSITION" : 6
					},
					"indices" : 2,
					"material" : 0,
					"mode" : 4
				}
			]
		},
		{
			"name" : "mesh_m1-PolyPaper8_-132588",
			"primitives" : 
			[
				{
					"attributes" : 
					{
						"COLOR_0" : 1,
						"NORMAL" : 5,
						"POSITION" : 7
					},
					"indices" : 3,
					"material" : 0,
					"mode" : 4
				}
			]
		}
	],
	"nodes" : 
	[
		{
			"matrix" : 
			[
				1,
				0,
				0,
				0,
				0,
				1,
				0,
				0,
				0,
				0,
				1,
				0,
				0,
				0,
				0,
				1
			],
			"mesh" : 0,
			"name" : "node_MeshObject1326933568-PolyPaper8"
		},
		{
			"matrix" : 
			[
				1,
				0,
				0,
				0,
				0,
				1,
				0,
				0,
				0,
				0,
				1,
				0,
				0,
				0,
				0,
				1
			],
			"mesh" : 1,
			"name" : "node_MeshObject1845653632-PolyPaper8"
		}
	],
	"scene" : 0,
	"scenes" : 
	[
		{
			"extras" : {},
			"name" : "defaultScene",
			"nodes" : 
			[
				0,
				1
			]
		}
	]
}